<?xml version="1.0" encoding="UTF-8"?>
<svg id="Layer_2" data-name="Layer 2" xmlns="http://www.w3.org/2000/svg" viewBox="0 0 103.77 91.51">
  <defs>
    <style>
      .cls-1 {
        fill: #10182b;
        opacity: .04;
      }
    </style>
  </defs>
  <g id="Content">
    <g>
      <path class="cls-1" d="m102.67,35.29l-.03-.07c-3.53-7.34-6.69-15.53-9.01-21.5-2.47-6.39-3.51-9.02-4.36-9.94-2.03-2.18-11.12-3.78-14.36-3.78-2.92,0-6.1.63-9.48,1.3-2.62.51-5.33,1.05-8.06,1.31-4.28.41-6.68,1.39-8.6,2.17-.97.39-1.8.73-2.67.9-.36.07-1.15.15-2.88.15-2.65,0-6.1-.19-8.52-.35-2.13-.14-3.97,1.48-4.14,3.57-.12,1.47-.19,2.59-.2,3.34-.77.68-4.63,2.11-9.4,2.11-2.69,0-5.54,1.63-8.46,4.85-2.74,3.02-3.2,7.42-1.16,10.95l9.62,16.61c.64,1.1.38,2.47-.6,3.27L1.72,65.25c-1.26,1.02-1.89,2.59-1.68,4.19.2,1.6,1.2,2.96,2.67,3.64,5.59,2.56,13.22,6.04,19.52,8.9.74.33,1.46.66,2.16.98.82.37,1.61.73,2.35,1.07l.26-.62c-.74-.34-1.54-.7-2.36-1.07-.7-.32-1.42-.64-2.15-.98-6.3-2.85-13.92-6.33-19.51-8.89-1.26-.57-2.11-1.74-2.29-3.12-.17-1.37.37-2.71,1.44-3.59l18.63-15.07c1.24-1.01,1.56-2.75.76-4.13l-9.62-16.6c-1.89-3.27-1.46-7.36,1.08-10.17,2.79-3.08,5.46-4.63,7.96-4.63,5.13,0,9.29-1.6,9.98-2.42.05-.06.08-.13.08-.21,0-.73.08-1.89.2-3.43.13-1.66,1.54-2.96,3.21-2.96.07,0,.14,0,.21,0,2.43.16,5.9.36,8.57.36,1.41,0,2.45-.05,3.01-.16.94-.18,1.8-.53,2.79-.93,1.89-.77,4.23-1.72,8.42-2.12,2.76-.27,5.48-.81,8.13-1.33,3.33-.66,6.49-1.28,9.34-1.28s12.02,1.58,13.87,3.57c.77.82,1.91,3.74,4.23,9.73,2.32,5.99,5.49,14.18,9.03,21.54l.03.05c1.55,3.68,1.72,10.55-1.55,12.51l-.03.02c-1.77.99-4.03,1.44-7.11,1.44-1.56,0-3.21-.11-4.81-.22-1.6-.11-3.26-.22-4.84-.22-2.57,0-5.39-.15-7.89-.29-1.99-.11-3.71-.2-4.97-.2-.89,0-1.27.05-1.44.09-.86.21-6.79,2.02-16.29,4.97-1.41.44-2.35,1.73-2.35,3.2v20.86c0,.82.67,1.49,1.49,1.49h8.39c2.59,0,5.14-1.37,7.61-2.7,2.42-1.31,4.72-2.54,7.07-2.54,2.48,0,4.68,1.76,5.48,4.37.8,2.61-.06,5.22-2.19,6.65-4.27,2.87-20.34,5.85-23.46,5.85-3.37,0-18.89-3.49-21.23-4.38-.08-.03-.19-.08-.33-.13h0s-.62-.27-.62-.27l.26-.61c.44.19.75.32.92.38,2.63,1,17.87,4.34,21,4.34s19.01-2.99,23.09-5.74c1.88-1.26,2.63-3.58,1.93-5.9-.59-1.94-2.32-3.9-4.84-3.9-2.19,0-4.41,1.19-6.76,2.46-2.54,1.37-5.16,2.78-7.93,2.78h-8.39c-1.19,0-2.16-.97-2.16-2.16v-20.86c0-1.77,1.14-3.31,2.83-3.84,5.59-1.73,15.14-4.69,16.32-4.98.88-.21,3.53-.07,6.6.09,2.49.13,5.3.29,7.85.29,1.6,0,3.27.12,4.89.22,4.35.3,8.46.58,11.55-1.14,2.62-1.57,2.89-7.84,1.27-11.7-3.55-7.39-6.73-15.6-9.05-21.6-2.04-5.27-3.39-8.75-4.1-9.51-1.61-1.73-10.17-3.35-13.38-3.35-2.79,0-5.91.62-9.21,1.27-2.65.53-5.4,1.07-8.19,1.34-4.09.4-6.39,1.33-8.23,2.08-1.03.41-1.92.78-2.92.97-2.1.4-8.91,0-11.75-.18-1.38-.1-2.6.96-2.71,2.34-.09,1.13-.2,2.65-.2,3.53,0,1.19-5.01,3.15-10.73,3.15-2.3,0-4.81,1.48-7.46,4.41-2.35,2.59-2.75,6.36-1,9.38l9.62,16.6c.97,1.67.58,3.77-.92,4.98l-18.63,15.07c-.9.73-1.35,1.84-1.2,2.99.14,1.14.86,2.11,1.9,2.59,4.67,2.14,12.75,5.83,19.49,8.88.74.33,1.46.66,2.15.98l.26-.62c-.7-.32-1.42-.64-2.15-.98-6.74-3.05-14.81-6.74-19.48-8.87-.84-.38-1.4-1.15-1.52-2.06-.11-.91.25-1.8.96-2.38l18.64-15.07c1.76-1.43,2.21-3.88,1.08-5.84l-9.62-16.61c-1.6-2.76-1.24-6.22.91-8.59,1.73-1.92,4.35-4.19,6.97-4.19,5.16,0,11.4-1.71,11.4-3.82,0-.43.03-1.02.06-1.64.04-.62.09-1.28.13-1.84.08-.98.91-1.73,1.88-1.73.04,0,.08,0,.12,0,3.55.24,9.82.57,11.91.17,1.07-.21,1.98-.58,3.05-1.01,1.81-.74,4.05-1.64,8.04-2.03,2.83-.27,5.59-.82,8.26-1.34,3.27-.65,6.36-1.26,9.08-1.26,3.38,0,11.54,1.69,12.89,3.14.62.67,2.1,4.48,3.96,9.29,2.33,6.01,5.51,14.24,9.07,21.63,1.47,3.49,1.24,9.49-1,10.84-2.92,1.62-6.93,1.34-11.17,1.06-1.63-.11-3.31-.23-4.93-.23-2.53,0-5.34-.15-7.81-.29-3.25-.17-5.83-.31-6.8-.07-1.2.29-10.77,3.25-16.37,4.99-1.97.61-3.29,2.41-3.29,4.48v20.86c0,1.56,1.27,2.83,2.83,2.83h8.39c2.93,0,5.63-1.45,8.24-2.86,2.27-1.22,4.42-2.38,6.44-2.38,2.18,0,3.68,1.72,4.2,3.42.49,1.62.32,3.82-1.66,5.16-3.9,2.63-19.84,5.63-22.72,5.63-3.03,0-18.31-3.37-20.76-4.3-.07-.03-.16-.06-.28-.11h0s-.62-.27-.62-.27h0s0,0,0,0l-.26.61-.61-.26-.26.62.61.26h0s-.26.62-.26.62l-.61-.26-.26.62.62.26.26-.61c.46.2.79.34.97.41,2.36.9,18.05,4.43,21.47,4.43,3.16,0,19.48-3.04,23.84-5.97,2.38-1.6,3.34-4.51,2.46-7.4-.88-2.89-3.34-4.84-6.12-4.84-2.53,0-4.89,1.27-7.39,2.62-2.39,1.29-4.86,2.62-7.29,2.62h-8.39c-.45,0-.82-.37-.82-.82v-20.86c0-1.18.76-2.21,1.89-2.56,9.48-2.94,15.4-4.75,16.24-4.96.05-.01.33-.07,1.28-.07,1.23,0,2.95.09,4.93.2,2.51.13,5.34.29,7.93.29,1.56,0,3.2.11,4.79.22,1.6.11,3.27.22,4.85.22,3.2,0,5.56-.48,7.44-1.52l.04-.03c3.57-2.14,3.46-9.45,1.82-13.35Z"/>
      <path class="cls-1" d="m34.65,84.58c2.36.89,17.65,4.25,20.53,4.25s18.63-3.01,22.34-5.51c1.4-.94,1.94-2.63,1.4-4.4-.53-1.76-1.97-2.95-3.56-2.95-1.85,0-3.83,1.07-6.12,2.3-2.56,1.37-5.46,2.94-8.56,2.94h-8.39c-1.93,0-3.49-1.57-3.49-3.49v-20.86c0-2.36,1.52-4.42,3.77-5.11,9.81-3.05,15.48-4.78,16.4-5.01.28-.07.75-.15,1.92-.15,1.31,0,3.05.09,5.08.21,2.46.13,5.26.28,7.78.28,1.65,0,3.34.12,4.97.23,1.56.11,3.17.21,4.67.21,2.71,0,4.64-.37,6.12-1.18,1.78-1.1,2.18-6.51.73-10-3.57-7.43-6.76-15.65-9.08-21.67-1.73-4.47-3.23-8.33-3.8-9.04,0,0-.02-.02-.03-.03-1.4-1.32-9.32-2.92-12.4-2.92-2.66,0-5.72.61-8.96,1.24-2.68.53-5.46,1.08-8.32,1.36-3.9.37-6,1.23-7.86,1.98-1.05.42-2.04.82-3.17,1.04-.7.14-1.81.2-3.39.2-2.72,0-6.23-.2-8.71-.36h-.08c-.62,0-1.16.5-1.21,1.12-.15,1.88-.19,2.83-.19,3.3v.84s-.55.64-.55.64c-1.44,1.7-6.71,3.14-11.52,3.14-1.88,0-4.12,1.37-6.47,3.97-1.95,2.16-2.29,5.3-.83,7.81l9.62,16.61c1.3,2.25.78,5.06-1.24,6.69l-18.63,15.07c-.54.44-.8,1.09-.72,1.78.09.69.5,1.25,1.13,1.54,7.87,3.6,14.43,6.59,19.46,8.87l.26-.62c-5.02-2.28-11.58-5.26-19.44-8.86-.42-.19-.69-.56-.75-1.02-.06-.45.12-.88.47-1.17l18.63-15.07c2.28-1.84,2.87-5.01,1.4-7.55l-9.62-16.61c-1.31-2.26-1.01-5.09.75-7.03,2.22-2.46,4.29-3.75,5.98-3.75,5.06,0,10.46-1.52,12.03-3.37l.62-.74c.05-.06.08-.13.08-.21v-.96c.02-.45.05-1.4.2-3.25.02-.27.27-.5.53-.5h.05c2.47.16,6,.36,8.74.36,1.62,0,2.77-.07,3.51-.21,1.19-.23,2.22-.65,3.3-1.08,1.81-.74,3.87-1.57,7.67-1.94,2.9-.28,5.69-.83,8.38-1.36,3.2-.63,6.24-1.23,8.83-1.23,3.36,0,10.77,1.7,11.92,2.73.52.69,2.13,4.83,3.69,8.86,2.33,6.01,5.52,14.25,9.09,21.68,1.39,3.34.91,8.31-.45,9.15-1.36.74-3.2,1.09-5.79,1.09-1.48,0-3.08-.11-4.63-.21-1.64-.11-3.34-.23-5.02-.23-2.5,0-5.29-.15-7.74-.28-2.03-.11-3.78-.21-5.11-.21-1.24,0-1.76.09-2.08.16-1.18.29-9.59,2.89-16.44,5.01-2.53.79-4.23,3.1-4.23,5.75v20.86c0,2.3,1.87,4.16,4.16,4.16h8.39c3.27,0,6.24-1.6,8.87-3.02,2.21-1.19,4.12-2.22,5.81-2.22,1.3,0,2.47.99,2.92,2.47.45,1.48.02,2.88-1.13,3.66-3.64,2.45-19.25,5.4-21.97,5.4s-17.96-3.33-20.29-4.21c-.06-.02-.14-.05-.23-.09h0s-.62-.27-.62-.27h0s-.03.07-.03.07l-.23.54-.61-.26-.26.62.61.26h0s.26-.61.26-.61c.42.19.71.31.87.36Z"/>
      <polygon class="cls-1" points="33.69 82.72 33.43 83.34 34.05 83.6 34.09 83.5 34.31 82.98 33.69 82.72"/>
    </g>
  </g>
</svg>