<svg xmlns="http://www.w3.org/2000/svg" id="Layer_2" data-name="Layer 2" viewBox="0 0 595.94 116.53"><g id="Layer_2-2" data-name="Layer 2"><path d="M260.34,91.96c-.39-.55-.86-1.02-1.53-1.41-.67-.39-1.49-.71-2.4-.94-.94-.2-1.93-.28-3.03-.28-1.18,0-2.24.16-3.26.39-1.1.27-2,.71-2.75,1.22-.79.59-1.37,1.26-1.85,2-.43.86-.67,1.77-.67,2.83,0,.83.2,1.49.51,2.08.31.51.75,1.02,1.3,1.38.51.35,1.14.67,1.85.94.67.24,1.34.43,2,.67.67.2,1.3.39,1.93.55.63.16,1.18.39,1.65.63.51.16.86.43,1.18.75.28.31.39.71.39,1.22,0,.55-.12,1.02-.35,1.38-.27.35-.63.67-1.1.9-.43.24-.9.39-1.49.55-.59.08-1.18.12-1.77.12-.79,0-1.53-.04-2.2-.2-.63-.2-1.1-.47-1.45-.86-.35-.35-.55-.9-.55-1.53v-.39c.04-.2.08-.35.12-.51h-3.85c-.04.24-.08.47-.16.75-.04.24-.08.55-.08.83,0,.79.16,1.49.47,2.12.35.63.86,1.14,1.57,1.61.67.39,1.53.75,2.55.98.98.27,2.16.35,3.46.35s2.4-.12,3.5-.39c1.06-.24,2-.67,2.87-1.22.83-.55,1.45-1.26,1.93-2.16s.71-1.93.71-3.18c0-.83-.2-1.61-.55-2.2-.35-.55-.79-1.06-1.41-1.41-.59-.35-1.26-.67-1.96-.94-.75-.24-1.45-.51-2.2-.71-.83-.27-1.57-.51-2.28-.71-.75-.2-1.3-.47-1.77-.79-.43-.31-.67-.75-.67-1.3,0-.39.08-.75.31-1.1.2-.31.51-.59.86-.83.39-.24.83-.39,1.34-.47.55-.16,1.1-.2,1.81-.2.75,0,1.38.08,1.93.24.51.16.94.39,1.22.75.28.35.43.83.43,1.34v.35c0,.12-.04.24-.04.43h3.81c.04-.12.08-.31.12-.63.08-.31.12-.67.12-.98,0-.79-.16-1.41-.55-2ZM266.83,89.8l-3.5,19.85h3.89l3.54-19.85h-3.93ZM268.09,82.34l-.71,4.01h3.89l.71-4.01h-3.89ZM301.41,90.47c-.94-.79-2.2-1.14-3.73-1.14-.86,0-1.69.16-2.44.39-.83.24-1.53.63-2.2,1.1-.67.47-1.34,1.06-1.93,1.77h-.28c-.31-1.14-.9-1.96-1.73-2.48-.9-.51-1.96-.79-3.18-.79-.83,0-1.61.16-2.4.39-.75.24-1.41.63-2.08,1.1-.71.47-1.34,1.06-1.89,1.77h-.27l.12-2.79h-3.18l-3.5,19.85h3.97l1.93-11.04c.2-1.22.63-2.24,1.14-3.1.55-.86,1.22-1.53,2-2.04.75-.43,1.53-.71,2.4-.71.55,0,1.02.08,1.49.27.39.16.75.43.98.79.2.35.35.9.35,1.57,0,.24,0,.51-.04.75-.04.28-.12.59-.16.94l-2.24,12.58h3.97l1.93-11.04c.2-1.22.59-2.24,1.14-3.1.55-.86,1.22-1.53,2-2.04.75-.43,1.53-.71,2.4-.71.55,0,1.02.08,1.49.27.39.16.75.43.98.79.2.35.35.9.35,1.57,0,.28-.04.55-.04.83-.04.24-.12.51-.16.86l-2.24,12.58h3.93l2.32-12.93c.08-.43.12-.9.16-1.3.04-.39.12-.79.12-1.22,0-1.73-.51-2.99-1.49-3.73ZM326.76,89.41c-.35-.04-.71-.08-1.14-.08-.86,0-1.57.2-2.2.55-.63.35-1.22.79-1.65,1.34-.47.55-.86,1.14-1.18,1.73h-.24l.16-3.14h-3.1l-3.54,19.85h3.93l1.85-10.49c.12-.94.39-1.77.71-2.48.31-.71.79-1.34,1.26-1.85.47-.47,1.02-.86,1.73-1.1.67-.28,1.41-.39,2.24-.39h1.34l.59-3.73c-.16-.04-.39-.08-.75-.2ZM344.44,106.58c-.2-.16-.31-.43-.31-.75,0-.16.04-.47.12-.94.08-.55.2-1.18.31-1.93.12-.83.27-1.65.43-2.59.2-.94.35-1.89.55-2.91.2-1.02.35-1.96.55-2.87l.9-4.79h-3.3l-1.06,2.44h-.27c-.35-.67-.75-1.22-1.34-1.65-.55-.39-1.18-.71-1.89-.94-.71-.24-1.53-.31-2.44-.31-1.53,0-2.95.35-4.2,1.02-1.26.75-2.28,1.85-3.14,3.34-.83,1.53-1.45,3.46-1.85,5.78-.16.67-.2,1.26-.28,1.77-.04.55-.12,1.1-.12,1.57,0,1.61.28,2.99.83,4.05.55,1.06,1.26,1.89,2.24,2.4.98.55,2.12.83,3.42.83s2.59-.28,3.73-.83c1.18-.51,2.16-1.34,2.99-2.44h.24c0,.31,0,.59.08.83.08.27.12.51.2.75.2.59.55.98.98,1.3.47.27,1.06.39,1.73.39.59,0,1.1-.04,1.57-.2.43-.12.75-.24,1.02-.39l.43-2.67h-1.34c-.35,0-.59-.08-.79-.24ZM341.46,97.82c0,.24-.04.55-.08.94-.04.31-.08.75-.2,1.18-.2,1.22-.51,2.2-.9,3.07-.43.86-.86,1.57-1.42,2.08-.55.55-1.1.94-1.73,1.22-.63.27-1.26.35-1.93.35-1.38,0-2.36-.31-3.03-.98s-.98-1.69-.98-3.07c0-.24,0-.51.04-.83,0-.31.04-.63.12-1.02.08-.35.12-.83.2-1.34.31-1.61.75-2.87,1.26-3.85s1.18-1.73,1.96-2.16c.79-.47,1.73-.67,2.83-.67.9,0,1.61.12,2.2.47.59.31,1.02.83,1.3,1.45.28.63.39,1.41.39,2.36,0,.24,0,.47-.04.79ZM366.73,92.08c-.59-.86-1.42-1.57-2.55-2.04-1.1-.47-2.52-.71-4.2-.71-1.42,0-2.67.24-3.81.63-1.1.47-2.04,1.06-2.87,1.93-.79.83-1.45,1.77-2,2.87-.51,1.06-.9,2.28-1.18,3.62-.16.71-.31,1.41-.39,2.08-.08.71-.08,1.41-.08,2.16,0,1.69.28,3.07.9,4.2.55,1.1,1.45,1.96,2.67,2.52,1.22.47,2.75.75,4.56.75s3.18-.31,4.4-.94c1.22-.63,2.2-1.57,2.91-2.71.71-1.22,1.22-2.63,1.49-4.21h-3.77c-.2.9-.51,1.73-.9,2.44-.39.71-.98,1.26-1.65,1.61-.71.39-1.57.59-2.55.59-.9,0-1.61-.2-2.24-.51-.59-.31-1.02-.79-1.34-1.42-.31-.67-.47-1.53-.47-2.55,0-.24,0-.51.08-.83,0-.31.04-.63.08-1.02.04-.35.12-.79.2-1.3.27-1.41.71-2.67,1.22-3.65.55-.98,1.22-1.77,2.04-2.24.79-.55,1.73-.83,2.79-.83.86,0,1.53.16,2.08.39.47.27.9.67,1.1,1.18.27.51.35,1.06.35,1.81,0,.2,0,.43-.04.63,0,.2-.04.43-.04.67h3.89c.12-.31.16-.63.2-.94,0-.31.04-.63.04-.9,0-1.3-.31-2.4-.9-3.26ZM373.17,89.8l-3.54,19.85h3.97l3.5-19.85h-3.93ZM374.39,82.34l-.71,4.01h3.93l.75-4.01h-3.97ZM397.62,91.41c-.51-.75-1.18-1.26-2-1.57-.86-.35-1.81-.51-2.87-.51-.86,0-1.73.16-2.52.39-.86.24-1.61.63-2.4,1.14-.71.47-1.38,1.06-1.93,1.73h-.27l.12-2.79h-3.18l-3.46,19.85h3.89l1.93-10.85c.2-.98.47-1.85.86-2.59.43-.79.94-1.41,1.45-1.89.59-.51,1.22-.9,1.89-1.18.75-.27,1.45-.39,2.12-.39.63,0,1.18.08,1.61.27.43.16.83.43,1.02.79.28.39.39.94.39,1.61,0,.28-.04.55-.08.86,0,.31-.04.63-.12.94l-2.16,12.42h3.89l2.24-12.65c.12-.47.2-.98.24-1.41.04-.47.08-.86.08-1.26,0-1.22-.28-2.2-.75-2.91ZM418.13,89.8l-.83,2.71h-.24c-.51-1.06-1.26-1.89-2.32-2.4-1.02-.51-2.24-.79-3.62-.79-2.32,0-4.32.79-5.93,2.32-1.65,1.53-2.71,4.01-3.3,7.35-.08.59-.16,1.14-.2,1.69-.08.47-.08.94-.08,1.38,0,1.61.28,2.95.83,4.05.55,1.06,1.26,1.81,2.24,2.36.98.51,2.12.75,3.46.75.79,0,1.57-.08,2.32-.31.71-.16,1.45-.47,2.04-.94.71-.39,1.22-.94,1.77-1.61h.24c-.04.16-.04.39-.12.59-.04.24-.04.51-.12.71-.24,1.26-.59,2.32-1.06,3.14-.55.83-1.22,1.45-2.08,1.85-.86.39-1.85.63-3.03.63-.63,0-1.22-.04-1.77-.24-.55-.12-.98-.35-1.26-.67-.31-.31-.43-.71-.43-1.26v-.51h-3.81c-.04.35-.08.63-.12.79v.59c0,.98.31,1.85.86,2.52.63.67,1.45,1.14,2.52,1.53,1.1.35,2.28.51,3.69.51,2.04,0,3.73-.31,5.19-.94,1.38-.63,2.55-1.61,3.42-2.91.83-1.34,1.45-3.1,1.85-5.27l3.06-17.61h-3.18ZM415.97,97.55c0,.2-.04.51-.08.83-.04.31-.12.71-.2,1.14-.16,1.1-.47,2.04-.83,2.87-.35.79-.83,1.41-1.34,1.93-.55.55-1.14.9-1.77,1.18-.67.2-1.34.35-2.04.35-.9,0-1.69-.16-2.24-.47-.63-.28-1.1-.71-1.38-1.3-.31-.59-.43-1.3-.43-2.2,0-.2,0-.43.04-.71.04-.24.04-.55.16-.9.04-.35.08-.79.16-1.3.24-1.49.63-2.71,1.18-3.62.55-.9,1.26-1.57,2.04-2,.83-.43,1.77-.59,2.75-.59s1.69.12,2.28.43c.55.28.98.79,1.3,1.34.28.63.39,1.38.39,2.32v.71ZM436.28,82.34l-4.79,27.31h3.93l4.79-27.31h-3.93ZM459.98,92.59c-.63-1.1-1.57-1.93-2.79-2.44-1.26-.55-2.75-.83-4.6-.83-2.04,0-3.77.35-5.27,1.1-1.45.71-2.67,1.77-3.66,3.3-.94,1.49-1.61,3.34-2,5.7-.16.55-.2,1.1-.24,1.65-.08.55-.08,1.02-.08,1.53,0,1.69.31,3.07.94,4.2.59,1.1,1.53,1.93,2.75,2.44,1.26.55,2.79.83,4.6.83,2.08,0,3.89-.35,5.34-1.06,1.49-.75,2.67-1.81,3.62-3.3.9-1.49,1.61-3.38,2-5.74.12-.55.16-1.1.24-1.61.04-.51.08-1.02.08-1.49,0-1.73-.31-3.14-.94-4.28ZM456.76,97.82c0,.24-.04.55-.04.94-.04.35-.16.79-.27,1.3-.27,1.49-.67,2.79-1.22,3.81-.59,1.02-1.3,1.73-2.2,2.24-.83.47-1.93.75-3.18.75-.98,0-1.77-.2-2.44-.51-.71-.31-1.18-.79-1.53-1.45-.31-.63-.47-1.45-.47-2.48,0-.24,0-.47.04-.75,0-.27.08-.59.12-.98.04-.39.12-.83.2-1.3.27-1.53.75-2.83,1.34-3.81.51-.98,1.22-1.77,2.12-2.24.86-.51,1.93-.79,3.14-.79,1.02,0,1.85.2,2.51.51.63.35,1.1.79,1.42,1.45.31.71.51,1.49.51,2.51,0,.24,0,.47-.04.79ZM479.44,89.8l-1.93,10.92c-.16.98-.43,1.81-.86,2.55-.39.75-.9,1.38-1.41,1.89-.59.47-1.22.86-1.89,1.1-.67.27-1.41.39-2.12.39-.55,0-1.06-.08-1.53-.24-.47-.2-.83-.47-1.1-.83-.27-.39-.39-.94-.39-1.61,0-.27.04-.55.08-.83.04-.31.08-.63.12-.94l2.2-12.42h-3.93l-2.24,12.61c-.12.51-.2.98-.27,1.45-.04.43-.08.83-.08,1.22,0,1.22.24,2.2.75,2.95.51.71,1.22,1.22,2.04,1.53.9.39,1.85.51,2.95.51.83,0,1.69-.12,2.55-.39.79-.24,1.53-.63,2.28-1.14.75-.47,1.38-1.06,1.93-1.73h.28l-.12,2.83h3.18l3.5-19.85h-3.97ZM503.92,91.41c-.47-.75-1.14-1.26-2-1.57-.79-.35-1.81-.51-2.83-.51-.83,0-1.69.16-2.55.39-.79.24-1.61.63-2.32,1.14-.71.47-1.38,1.06-1.96,1.73h-.27l.12-2.79h-3.18l-3.5,19.85h3.97l1.93-10.85c.12-.98.43-1.85.83-2.59.43-.79.9-1.41,1.49-1.89.59-.51,1.22-.9,1.89-1.18.71-.27,1.38-.39,2.12-.39.55,0,1.1.08,1.53.27.47.16.83.43,1.1.79.24.39.35.94.35,1.61,0,.28,0,.55-.04.86-.04.31-.08.63-.16.94l-2.16,12.42h3.93l2.24-12.65c.08-.47.12-.98.24-1.41.04-.47.04-.86.04-1.26,0-1.22-.24-2.2-.79-2.91ZM524.51,89.8l-.86,2.71h-.24c-.51-1.06-1.3-1.89-2.28-2.4-1.02-.51-2.24-.79-3.62-.79-2.4,0-4.36.79-5.97,2.32-1.61,1.53-2.71,4.01-3.26,7.35-.12.59-.2,1.14-.24,1.69-.04.47-.04.94-.04,1.38,0,1.61.28,2.95.75,4.05.55,1.06,1.34,1.81,2.32,2.36.94.51,2.08.75,3.42.75.83,0,1.57-.08,2.32-.31.75-.16,1.42-.47,2.08-.94.63-.39,1.22-.94,1.69-1.61h.24c0,.16-.04.39-.04.59-.04.24-.08.51-.12.71-.24,1.26-.59,2.32-1.14,3.14-.47.83-1.22,1.45-2,1.85-.86.39-1.89.63-3.07.63-.63,0-1.22-.04-1.73-.24-.59-.12-.98-.35-1.3-.67-.27-.31-.47-.71-.47-1.26v-.2c0-.12.04-.2.04-.31h-3.77c-.12.35-.16.63-.16.79v.59c0,.98.28,1.85.9,2.52.59.67,1.42,1.14,2.52,1.53,1.06.35,2.28.51,3.62.51,2.08,0,3.81-.31,5.27-.94,1.38-.63,2.48-1.61,3.34-2.91.86-1.34,1.53-3.1,1.93-5.27l3.07-17.61h-3.18ZM522.35,97.55c-.04.2-.04.51-.16.83-.04.31-.08.71-.16,1.14-.2,1.1-.43,2.04-.83,2.87-.39.79-.83,1.41-1.38,1.93-.47.55-1.1.9-1.73,1.18-.63.2-1.3.35-2.04.35-.86,0-1.65-.16-2.28-.47-.59-.28-1.02-.71-1.3-1.3-.31-.59-.43-1.3-.43-2.2,0-.2,0-.43.04-.71,0-.24.04-.55.08-.9.04-.35.16-.79.2-1.3.27-1.49.67-2.71,1.18-3.62.55-.9,1.22-1.57,2.04-2,.83-.43,1.73-.59,2.75-.59.9,0,1.69.12,2.24.43.59.28,1.06.79,1.34,1.34.27.63.43,1.38.43,2.32v.71ZM547.7,92.55c-.59-1.06-1.42-1.89-2.59-2.4-1.18-.55-2.59-.83-4.32-.83-2.08,0-3.81.39-5.23,1.22-1.34.79-2.44,1.89-3.26,3.26-.79,1.34-1.37,2.91-1.73,4.72-.16.63-.24,1.3-.31,1.96-.12.71-.12,1.38-.12,2.12,0,1.65.27,3.07.9,4.2.63,1.1,1.57,1.93,2.83,2.44,1.26.55,2.83.83,4.72.83,1.1,0,2.2-.12,3.22-.43.98-.31,1.89-.75,2.63-1.38.83-.55,1.49-1.34,2-2.24.55-.94.94-2,1.18-3.26h-3.85c-.16.79-.39,1.41-.75,1.89-.31.55-.75.94-1.18,1.3-.47.31-.94.55-1.53.71-.55.16-1.1.24-1.73.24-1.06,0-1.85-.16-2.52-.43-.67-.31-1.18-.83-1.49-1.45-.31-.67-.43-1.45-.43-2.48,0-.31,0-.59.04-.86,0-.31.04-.63.08-.98h13.75c.24-.75.35-1.45.47-2.16.08-.79.12-1.38.12-1.96,0-1.61-.31-2.91-.9-4.01ZM544.55,96.96c0,.27-.04.59-.08.86h-9.67c.31-1.14.75-2.12,1.3-2.91.55-.83,1.18-1.41,1.96-1.81.83-.39,1.69-.59,2.75-.59.79,0,1.49.16,2.04.35.59.27,1.02.67,1.34,1.26.28.55.43,1.26.43,2.12,0,.2,0,.47-.08.71ZM26,12.11H6.52L0,0h26.03c7.83,0,15.2,4.56,19.2,11.88l16.22,29.76L84.04,2.18h12.63l-31.26,54.66c-.87,1.5-2.44,2.35-4.16,2.38-1.72-.03-3.23-.94-4.08-2.47l-20.95-38.43c-2.08-3.82-6.01-6.2-10.22-6.2ZM111.66,2.18l-34.7,60.66c-3.47,6.06-9.27,9.64-15.58,9.64h-.21c-6.39-.06-12.22-3.82-15.61-10.03L25.95,26.46h-11.73l-6.55-12.14h18.33c3.57,0,6.85,2,8.57,5.17l20.97,38.43c1.18,2.15,3.31,3.47,5.67,3.5h.1c2.36,0,4.47-1.26,5.7-3.38L98.95,2.18h12.71ZM241.05,65.18l-1.19,7.3h-60.35L191.09,2.28h8.43l-9.92,62.89h51.45ZM126.18,55.71h49.44l-1.27,7.82h-58.36l4.29-25.34h54.36l-1.05,6.42h-45.4l-2.02,11.11ZM310.55,12.25l-3.78-.26c-4.16-.29-8.36-.43-12.55-.43s-8.52.14-12.75.44l-7.2.5c-5.48.38-10.16,4.07-11.63,9.18l-1.44,5.01c-2.08,7.22-3.39,14.68-3.91,22.17l-.04.59c-.23,3.34.9,6.57,3.17,9.1,2.28,2.53,5.45,4.06,8.92,4.29l3.79.26c8.34.56,16.82.57,25.19,0l7.41-.51c5.49-.38,10.17-4.08,11.64-9.2l1.34-4.69c2.16-7.55,3.49-15.35,3.94-23.18.4-6.82-5.03-12.77-12.09-13.25ZM311.71,41.47c-1.84,10.02-4.41,13.11-11.41,13.87-3.15.31-7.76.4-15.89.4-15.55,0-18.28-1.16-18.47-7.56-.18-5.91,2.22-19.56,4.05-23.49,2.27-5.01,5.26-5.73,22.72-5.73,18.52,0,20.57.72,20.77,7.25.09,2.82-.48,7.47-1.76,15.26ZM200.92,54.24h41.91l-1.52,9.29h-49.79l9.66-61.24h8.17l-.11.67-8.34,51.29ZM133,19.05l-2.05,10.75h45.06l-1.1,6.73h-54.35l4.23-24.98h58.05l-1.2,7.49h-48.65ZM519.77,2.29h11.73l.16.3,14.62,27.84,25.1-28.14h10.44l-37.66,42.13-24.38-42.13ZM448.21,10.49l1.34-8.21h50.7l.16.29,4.59,7.92h-56.8ZM174.09,65.18l-1.19,7.3h-69.06l.11-.67L115.28,2.28h69.05l-1.22,7.62h-59.7l-9.36,55.27h60.04ZM529.62,72.47l3.65-24.39-26.5-45.79h11.09l25.28,43.68-4.71,26.49h-8.81ZM505.96,12.14l4.83,8.34h-19.06l-8.48,52h-8.71l10-60.33h21.42ZM463.84,71.81l8.41-51.33h-25.67l1.36-8.34h34.92l-10,60.33h-9.14l.11-.67ZM595.94,2.29l-.91.97-42.19,44.97-3.62,24.24h-9.11l4.67-26.27,39.25-43.91h11.91ZM424.61,2.28h19.52l-.11.67-11.52,69.53h-8.91l11.51-69.48-1.63-.27-11.56,69.75h-8.9l11.59-70.19ZM406.31,20.07c.12,1.2-.22,4.52-.85,7.57h-9.19l.14-1.54c.07-.78.12-1.3.1-1.79-.13-4.12-1.35-4.86-16.35-4.86-9.75,0-14.31.22-16.26.78-4.5,1.39-5.83,3.6-7.44,12.43-1.39,8.12-1.84,12.12-1.75,15.27.17,5.7,1.81,7.15,16.46,7.15,13.6,0,15.83-.17,18.33-1.42,2.54-1.1,3.63-3.01,4.52-7.87l.09-.47h9.61c-.26,1.12-.5,2.26-.8,3.35l-1.24,4.66c-1.36,5.12-5.69,8.81-10.76,9.18l-6.88.51c-7.76.58-15.63.58-23.36.02l-8.15-.86c-3.92-.41-6.88-3.82-6.74-7.76l.2-5.62c.48-7.49,1.7-14.96,3.64-22.18l1.34-5c1.36-5.11,5.68-8.79,10.75-9.17l6.69-.5c7.79-.59,15.7-.59,23.44-.02l7.8,1.12c3.57.52,6.32,3.4,6.67,7.02ZM412.83,45.33l.03.61v.15c-1.68,10.83-2.56,14.11-4.72,17.54-3.81,6.22-9.68,8.62-22.42,9.17-2.67.09-11.18.18-19.12.18-17.1,0-22.4-.91-27.02-4.64-3.1-2.43-4.7-6.67-4.89-12.96-.16-5.19,1.02-14.99,3.16-26.21,2.7-14.98,6.44-20.97,15.38-24.68,5.06-2.09,11.02-2.73,25.53-2.73,18.52,0,24.71.41,28.81,1.92,5.63,2,8.23,5.89,8.44,12.6.07,2.43-.08,4.67-.52,7.71-.03.26-.08.5-.12.75-.04.22-.08.44-.11.67-.04.28-.1.61-.16.96-.05.26-.1.53-.14.8l-.08.48h-7.74c.61-3.05.94-6.29.8-7.73-.43-4.38-3.75-7.87-8.08-8.49l-7.86-1.13c-7.87-.58-15.86-.57-23.74.01l-6.69.5c-5.76.43-10.68,4.6-12.22,10.39l-1.34,5c-1.96,7.33-3.2,14.9-3.69,22.53l-.2,5.64c-.17,4.81,3.44,8.97,8.22,9.47l8.18.87c3.89.28,7.8.43,11.72.43s7.95-.15,11.9-.44l6.88-.51c5.78-.43,10.69-4.61,12.23-10.41l1.24-4.66c.33-1.23.61-2.51.9-3.77h7.42ZM326.35,5.41c-5.37-3-8.89-3.31-33.19-3.31-15.39,0-21.24.4-26.46,2.1-10.53,3.31-14.7,9.93-17.58,28.15-2.2,13.69-2.82,19.02-2.69,23.13.21,6.94,2.35,11.68,6.2,13.87,5.08,2.73,9.94,3.27,31,3.27,8.05,0,15.89-.22,19.72-.4,9.82-.72,15.71-3.62,20.01-9.8,3.22-4.7,4.95-10.47,6.86-22.2,1.97-12.4,2.45-17.09,2.34-20.72-.21-7.03-2.36-11.9-6.21-14.1ZM320.29,49.14l-1.34,4.69c-1.66,5.79-6.93,9.96-13.11,10.4h0l-7.41.51c-4.24.29-8.51.43-12.78.43s-8.45-.14-12.63-.43l-3.79-.26c-3.9-.26-7.46-1.99-10.03-4.84-2.58-2.86-3.85-6.52-3.59-10.31l.04-.59c.53-7.6,1.86-15.18,3.97-22.51l1.44-5.01c1.66-5.78,6.93-9.95,13.1-10.37l7.2-.5c8.47-.58,17.06-.59,25.53-.01l3.78.26c7.97.54,14.08,7.27,13.63,15-.46,7.95-1.81,15.87-4,23.54Z" style="fill: #fff; stroke-width: 0px;"></path></g></svg>