<?xml version="1.0" encoding="UTF-8"?>
<svg id="Layer_2" data-name="Layer 2" xmlns="http://www.w3.org/2000/svg" viewBox="0 0 371.09 77.68">
  <defs>
    <style>
      .cls-1 {
        fill: #eaeaea;
      }

      .cls-2 {
        fill: #ed1c24;
      }

      .cls-3 {
        fill: #d22026;
      }
    </style>
  </defs>
  <g id="Content">
    <g>
      <g>
        <path class="cls-3" d="m114.08,28.35h-8.79l-2.94-5.46h11.74c3.53,0,6.85,2.06,8.66,5.36l7.31,13.42,10.19-17.79h5.7l-14.1,24.65c-.39.68-1.1,1.06-1.88,1.07-.77-.01-1.46-.42-1.84-1.11l-9.44-17.33c-.94-1.72-2.71-2.8-4.61-2.8m38.63-4.48l-15.65,27.35c-1.56,2.73-4.18,4.35-7.03,4.35h-.09c-2.88-.03-5.51-1.72-7.04-4.52l-8.84-16.23h-5.29l-2.95-5.48h8.27c1.61,0,3.09.9,3.87,2.33l9.46,17.33c.53.97,1.49,1.56,2.56,1.58h.05c1.06,0,2.01-.57,2.57-1.52l14.4-25.19h5.73Zm58.35,28.41l-.54,3.29h-27.21l5.22-31.65h3.8l-4.47,28.36h23.2Zm-51.8-4.27h22.3l-.57,3.52h-26.32l1.94-11.43h24.51l-.47,2.89h-20.47l-.91,5.01Zm83.14-19.6l-1.7-.12c-1.88-.13-3.77-.19-5.66-.19s-3.84.06-5.75.2l-3.25.23c-2.47.17-4.58,1.84-5.24,4.14l-.65,2.26c-.94,3.26-1.53,6.62-1.76,10l-.02.27c-.11,1.5.4,2.96,1.43,4.1,1.03,1.14,2.46,1.83,4.02,1.94l1.71.11c3.76.25,7.58.26,11.36,0l3.34-.23c2.48-.17,4.59-1.84,5.25-4.15l.6-2.12c.98-3.4,1.57-6.92,1.78-10.45.18-3.08-2.27-5.76-5.45-5.98m.52,13.18c-.83,4.52-1.99,5.91-5.15,6.26-1.42.14-3.5.18-7.17.18-7.01,0-8.24-.52-8.33-3.41-.08-2.66,1-8.82,1.83-10.59,1.02-2.26,2.37-2.58,10.25-2.58,8.35,0,9.27.32,9.37,3.27.04,1.27-.22,3.37-.79,6.88m-49.96,5.76h18.9l-.68,4.19h-22.45l4.36-27.62h3.69l-.05.3-3.76,23.13Zm-30.63-15.87l-.93,4.85h20.32l-.5,3.04h-24.51l1.91-11.26h26.18l-.54,3.38h-21.94Zm174.41-7.56h5.29l.07.14,6.59,12.55,11.32-12.69h4.71l-16.98,19-10.99-19Zm-32.27,3.7l.6-3.7h22.87l.07.13,2.07,3.57h-25.61Zm-123.62,24.66l-.54,3.29h-31.14l.05-.3,5.11-31.35h31.14l-.55,3.44h-26.92l-4.22,24.92h27.08Zm160.33,3.29l1.64-11-11.95-20.65h5l11.4,19.7-2.12,11.95h-3.98Zm-10.67-27.2l2.18,3.76h-8.59l-3.82,23.45h-3.93l4.51-27.21h9.66Zm-19,26.91l3.79-23.15h-11.58l.61-3.76h15.75l-4.51,27.21h-4.12l.05-.3Zm59.57-31.35l-.41.44-19.03,20.28-1.63,10.93h-4.11l2.1-11.84,17.7-19.8h5.37Zm-77.26,0h8.8l-.05.3-5.2,31.35h-4.02l5.19-31.33-.73-.12-5.21,31.46h-4.01l5.23-31.65Zm-8.25,8.02c.05.54-.1,2.04-.38,3.41h-4.14l.06-.69c.03-.35.06-.58.05-.81-.06-1.86-.61-2.19-7.37-2.19-4.4,0-6.45.1-7.33.35-2.03.63-2.63,1.63-3.36,5.61-.62,3.66-.83,5.46-.79,6.89.08,2.57.82,3.22,7.42,3.22,6.13,0,7.14-.08,8.27-.64,1.15-.5,1.64-1.36,2.03-3.55l.04-.21h4.33c-.12.51-.23,1.02-.36,1.51l-.56,2.1c-.62,2.31-2.57,3.97-4.85,4.14l-3.11.23c-3.5.26-7.05.26-10.53,0l-3.68-.39c-1.77-.19-3.1-1.72-3.04-3.5l.09-2.53c.22-3.38.77-6.75,1.64-10l.6-2.26c.62-2.31,2.56-3.97,4.85-4.14l3.02-.23c3.51-.27,7.08-.26,10.57,0l3.52.51c1.61.23,2.85,1.53,3.01,3.17m2.94,11.39v.27s.01.07.01.07c-.75,4.89-1.15,6.36-2.12,7.91-1.72,2.8-4.37,3.89-10.11,4.14-1.21.04-5.04.08-8.62.08-7.71,0-10.1-.41-12.19-2.09-1.4-1.1-2.12-3.01-2.21-5.84-.07-2.34.46-6.76,1.43-11.82,1.22-6.75,2.9-9.46,6.94-11.13,2.28-.94,4.97-1.23,11.51-1.23,8.35,0,11.14.19,12.99.86,2.54.9,3.71,2.66,3.81,5.68.03,1.1-.03,2.11-.23,3.47-.02.12-.03.23-.06.34-.02.1-.04.2-.05.3-.02.13-.04.28-.07.43-.02.12-.04.24-.06.36l-.03.22h-3.49c.28-1.38.42-2.84.36-3.49-.19-1.98-1.69-3.55-3.65-3.83l-3.54-.51c-3.55-.26-7.15-.26-10.7,0l-3.02.23c-2.6.19-4.81,2.08-5.51,4.69l-.6,2.26c-.88,3.31-1.44,6.72-1.66,10.16l-.09,2.54c-.08,2.17,1.55,4.04,3.7,4.27l3.69.39c1.75.13,3.52.19,5.29.19s3.59-.07,5.37-.2l3.1-.23c2.6-.2,4.82-2.08,5.52-4.7l.56-2.1c.15-.56.27-1.13.4-1.7h3.35Zm-39-18c-2.42-1.35-4.01-1.5-14.97-1.5-6.94,0-9.58.18-11.93.95-4.75,1.5-6.63,4.48-7.93,12.69-.99,6.18-1.27,8.58-1.21,10.43.09,3.13,1.06,5.27,2.8,6.26,2.29,1.23,4.49,1.47,13.98,1.47,3.63,0,7.17-.1,8.89-.18,4.43-.32,7.09-1.64,9.03-4.42,1.45-2.12,2.23-4.72,3.1-10.01.89-5.59,1.1-7.71,1.05-9.34-.1-3.17-1.06-5.37-2.8-6.35m-2.73,19.72l-.6,2.12c-.75,2.61-3.12,4.49-5.91,4.69l-3.34.23c-1.91.13-3.84.2-5.76.2s-3.81-.06-5.7-.19l-1.71-.11c-1.76-.12-3.36-.9-4.52-2.18-1.16-1.29-1.74-2.94-1.62-4.65l.02-.27c.24-3.43.84-6.85,1.79-10.15l.65-2.26c.75-2.6,3.12-4.49,5.91-4.68l3.25-.23c3.82-.26,7.69-.26,11.51,0l1.7.12c3.59.25,6.35,3.28,6.15,6.76-.21,3.59-.82,7.16-1.81,10.62"/>
        <path class="cls-2" d="m114.08,28.35h-8.79l-2.94-5.46h11.74c3.53,0,6.85,2.06,8.66,5.36l7.31,13.42,10.19-17.79h5.7l-14.1,24.65c-.39.68-1.1,1.06-1.88,1.07-.77-.01-1.46-.42-1.84-1.11l-9.44-17.33c-.94-1.72-2.71-2.8-4.61-2.8m38.63-4.48l-15.65,27.35c-1.56,2.73-4.18,4.35-7.03,4.35h-.09c-2.88-.03-5.51-1.72-7.04-4.52l-8.84-16.23h-5.29l-2.95-5.48h8.27c1.61,0,3.09.9,3.87,2.33l9.46,17.33c.53.97,1.49,1.56,2.56,1.58h.05c1.06,0,2.01-.57,2.57-1.52l14.4-25.19h5.73Zm58.35,28.41l-.54,3.29h-27.21l5.22-31.65h3.8l-4.47,28.36h23.2Zm-51.8-4.27h22.3l-.57,3.52h-26.32l1.94-11.43h24.51l-.47,2.89h-20.47l-.91,5.01Zm83.14-19.6l-1.7-.12c-1.88-.13-3.77-.19-5.66-.19s-3.84.06-5.75.2l-3.25.23c-2.47.17-4.58,1.84-5.24,4.14l-.65,2.26c-.94,3.26-1.53,6.62-1.76,10l-.02.27c-.11,1.5.4,2.96,1.43,4.1,1.03,1.14,2.46,1.83,4.02,1.94l1.71.11c3.76.25,7.58.26,11.36,0l3.34-.23c2.48-.17,4.59-1.84,5.25-4.15l.6-2.12c.98-3.4,1.57-6.92,1.78-10.45.18-3.08-2.27-5.76-5.45-5.98m.52,13.18c-.83,4.52-1.99,5.91-5.15,6.26-1.42.14-3.5.18-7.17.18-7.01,0-8.24-.52-8.33-3.41-.08-2.66,1-8.82,1.83-10.59,1.02-2.26,2.37-2.58,10.25-2.58,8.35,0,9.27.32,9.37,3.27.04,1.27-.22,3.37-.79,6.88m-49.96,5.76h18.9l-.68,4.19h-22.45l4.36-27.62h3.69l-.05.3-3.76,23.13Zm-30.63-15.87l-.93,4.85h20.32l-.5,3.04h-24.51l1.91-11.26h26.18l-.54,3.38h-21.94Zm174.41-7.56h5.29l.07.14,6.59,12.55,11.32-12.69h4.71l-16.98,19-10.99-19Zm-32.27,3.7l.6-3.7h22.87l.07.13,2.07,3.57h-25.61Zm-123.62,24.66l-.54,3.29h-31.14l.05-.3,5.11-31.35h31.14l-.55,3.44h-26.92l-4.22,24.92h27.08Zm160.33,3.29l1.64-11-11.95-20.65h5l11.4,19.7-2.12,11.95h-3.98Zm-10.67-27.2l2.18,3.76h-8.59l-3.82,23.45h-3.93l4.51-27.21h9.66Zm-19,26.91l3.79-23.15h-11.58l.61-3.76h15.75l-4.51,27.21h-4.12l.05-.3Zm59.57-31.35l-.41.44-19.03,20.28-1.63,10.93h-4.11l2.1-11.84,17.7-19.8h5.37Zm-77.26,0h8.8l-.05.3-5.2,31.35h-4.02l5.19-31.33-.73-.12-5.21,31.46h-4.01l5.23-31.65Zm-8.25,8.02c.05.54-.1,2.04-.38,3.41h-4.14l.06-.69c.03-.35.06-.58.05-.81-.06-1.86-.61-2.19-7.37-2.19-4.4,0-6.45.1-7.33.35-2.03.63-2.63,1.63-3.36,5.61-.62,3.66-.83,5.46-.79,6.89.08,2.57.82,3.22,7.42,3.22,6.13,0,7.14-.08,8.27-.64,1.15-.5,1.64-1.36,2.03-3.55l.04-.21h4.33c-.12.51-.23,1.02-.36,1.51l-.56,2.1c-.62,2.31-2.57,3.97-4.85,4.14l-3.11.23c-3.5.26-7.05.26-10.53,0l-3.68-.39c-1.77-.19-3.1-1.72-3.04-3.5l.09-2.53c.22-3.38.77-6.75,1.64-10l.6-2.26c.62-2.31,2.56-3.97,4.85-4.14l3.02-.23c3.51-.27,7.08-.26,10.57,0l3.52.51c1.61.23,2.85,1.53,3.01,3.17m2.94,11.39v.27s.01.07.01.07c-.75,4.89-1.15,6.36-2.12,7.91-1.72,2.8-4.37,3.89-10.11,4.14-1.21.04-5.04.08-8.62.08-7.71,0-10.1-.41-12.19-2.09-1.4-1.1-2.12-3.01-2.21-5.84-.07-2.34.46-6.76,1.43-11.82,1.22-6.75,2.9-9.46,6.94-11.13,2.28-.94,4.97-1.23,11.51-1.23,8.35,0,11.14.19,12.99.86,2.54.9,3.71,2.66,3.81,5.68.03,1.1-.03,2.11-.23,3.47-.02.12-.03.23-.06.34-.02.1-.04.2-.05.3-.02.13-.04.28-.07.43-.02.12-.04.24-.06.36l-.03.22h-3.49c.28-1.38.42-2.84.36-3.49-.19-1.98-1.69-3.55-3.65-3.83l-3.54-.51c-3.55-.26-7.15-.26-10.7,0l-3.02.23c-2.6.19-4.81,2.08-5.51,4.69l-.6,2.26c-.88,3.31-1.44,6.72-1.66,10.16l-.09,2.54c-.08,2.17,1.55,4.04,3.7,4.27l3.69.39c1.75.13,3.52.19,5.29.19s3.59-.07,5.37-.2l3.1-.23c2.6-.2,4.82-2.08,5.52-4.7l.56-2.1c.15-.56.27-1.13.4-1.7h3.35Zm-39-18c-2.42-1.35-4.01-1.5-14.97-1.5-6.94,0-9.58.18-11.93.95-4.75,1.5-6.63,4.48-7.93,12.69-.99,6.18-1.27,8.58-1.21,10.43.09,3.13,1.06,5.27,2.8,6.26,2.29,1.23,4.49,1.47,13.98,1.47,3.63,0,7.17-.1,8.89-.18,4.43-.32,7.09-1.64,9.03-4.42,1.45-2.12,2.23-4.72,3.1-10.01.89-5.59,1.1-7.71,1.05-9.34-.1-3.17-1.06-5.37-2.8-6.35m-2.73,19.72l-.6,2.12c-.75,2.61-3.12,4.49-5.91,4.69l-3.34.23c-1.91.13-3.84.2-5.76.2s-3.81-.06-5.7-.19l-1.71-.11c-1.76-.12-3.36-.9-4.52-2.18-1.16-1.29-1.74-2.94-1.62-4.65l.02-.27c.24-3.43.84-6.85,1.79-10.15l.65-2.26c.75-2.6,3.12-4.49,5.91-4.68l3.25-.23c3.82-.26,7.69-.26,11.51,0l1.7.12c3.59.25,6.35,3.28,6.15,6.76-.21,3.59-.82,7.16-1.81,10.62"/>
      </g>
      <path class="cls-1" d="m83.38,35.2c0-.17,0-.36-.02-.54,0-.3-.02-.6-.04-.9,0-.11-.02-.24-.02-.36-.02-.19-.04-.41-.04-.6-.02-.17-.04-.32-.06-.47,0-.15-.02-.28-.04-.41-.02-.21-.04-.41-.06-.62-.02-.13-.04-.28-.06-.41-.02-.15-.04-.3-.06-.45,0-.02,0-.06-.02-.09-.02-.13-.02-.26-.04-.39-.02-.13-.06-.26-.09-.39,0-.06-.02-.15-.04-.21-.02-.13-.04-.24-.06-.34-.06-.34-.13-.69-.21-1.03-.02-.11-.04-.24-.06-.34-.04-.17-.09-.32-.13-.47-.02-.15-.06-.3-.11-.45-.04-.15-.09-.3-.13-.45-.09-.28-.15-.54-.24-.82-.15-.47-.3-.92-.45-1.37-.04-.11-.09-.21-.13-.34-.06-.17-.13-.32-.19-.49-.02-.11-.06-.19-.11-.28-.04-.13-.09-.24-.13-.34s-.09-.21-.13-.32c-.04-.11-.09-.21-.15-.32-.06-.17-.13-.32-.21-.49-.04-.11-.09-.21-.15-.32-.04-.11-.09-.21-.13-.32-.04-.09-.09-.15-.13-.24-.04-.09-.09-.17-.13-.26-.32-.69-.69-1.33-1.05-1.97-.13-.24-.28-.47-.41-.71-.04-.06-.09-.13-.13-.19-.13-.24-.28-.45-.43-.69-.09-.13-.17-.26-.26-.39-.09-.13-.17-.26-.26-.39-.19-.28-.41-.56-.6-.84-.09-.11-.15-.19-.24-.3-.09-.13-.19-.24-.28-.36-.09-.13-.19-.24-.28-.36-.11-.13-.21-.26-.32-.39-.02-.02-.04-.06-.06-.09l5.22-8.8h-16.03c-2.02-1.07-4.16-2-6.4-2.73-.15-.06-.3-.11-.45-.15-.24-.09-.45-.15-.69-.21-.02,0-.04-.02-.04-.02-.28-.09-.54-.15-.82-.24-.41-.11-.82-.21-1.22-.3-.15-.04-.28-.06-.41-.11-.11-.02-.19-.04-.28-.06-.15-.02-.3-.06-.45-.09-.11-.02-.21-.04-.32-.06-.21-.04-.41-.09-.62-.13-.15-.02-.3-.06-.45-.09-.47-.09-.94-.15-1.44-.24-.15-.02-.32-.04-.47-.06-.17-.02-.32-.04-.49-.06-.3-.02-.64-.06-.97-.11-.52-.04-1.05-.09-1.59-.13-.11,0-.24,0-.36-.02-.13,0-.28,0-.43-.02h-.13c-.13,0-.28,0-.43-.02h-.6c-.3-.02-.6-.02-.9-.02C25.64,0,9.8,11.81,6.58,29.51v.02l-2.17,9.32,27.67.02c1.37,0,2.66.75,3.31,1.97l5.22,9.57c.15.28.43.41.71.41.26,0,.54-.13.69-.41L63.01,13.5h2.64l-21.83,38.38c-.56.99-1.55,1.48-2.53,1.48s-2-.52-2.53-1.52l-1.4-2.55c-1.59-2.9-4.59-4.61-7.75-4.61-.77,0-1.57.11-2.36.32L1.35,52.18l-.79,3.41c-3.07,13.26,7.68,22.09,7.68,22.09l21.61-5.67,45.33-11.91c5.15-6.57,8.22-14.85,8.22-23.85,0-.36-.02-.71-.02-1.05Zm-10.39,21.64l-44.09,11.57-19.6,5.15c-2.4-2.55-7.08-8.8-5.15-17.13l.3-1.27,23.78-6.59c.45-.13.92-.19,1.37-.19,1.87,0,3.58,1.03,4.49,2.66l1.4,2.58c1.16,2.12,3.39,3.46,5.8,3.46s4.59-1.29,5.75-3.35l21.83-38.4,2.92-5.13h-11.18l-.84,1.46-18.42,32.39-2.7-4.98c-1.31-2.4-3.82-3.91-6.57-3.91l-22.99-.02,1.14-4.96C13.06,14.6,27.23,3.71,44.68,3.71c.28,0,.56,0,.84.02h.6l.3.02h.17l.43.02.3.02c.49.02.97.06,1.44.13.3.02.6.04.88.09l.45.06.45.06c.43.04.86.13,1.31.19l.39.09.62.11.26.06.41.09.06.02h.04l.17.04.34.09c.36.09.75.17,1.14.28.24.06.47.15.71.21l.13.04.11.02.49.15.36.13c2.02.67,3.97,1.5,5.8,2.47l.82.45h10.75l-3.33,5.69,1.48,1.76.04.09.02.02c.09.09.17.19.28.32l.26.34.26.32.11.15.06.09c.19.26.36.52.58.82l.24.34.19.3c.13.19.26.41.39.6l.11.17c.13.21.26.43.36.62.34.58.64,1.16.94,1.78l.13.24.11.26.15.3.06.15.02.04.02.06c.06.11.11.24.19.43l.11.26.06.15.06.15.13.3.09.21.15.45.13.32c.13.39.28.79.41,1.22.06.26.15.49.19.71l.13.43.11.41.09.41.04.15.04.17c.06.28.13.58.19.94l.06.3.02.15.02.11.04.28.04.3.02.06v.02l.02.11.04.32.04.36c.02.17.04.36.09.6l.02.34.04.43.04.49.02.34c.02.28.04.54.04.84l.02.45c0,.32.02.64.02.97,0,7.49-2.32,14.57-6.7,20.58Z"/>
    </g>
  </g>
</svg>